<?xml version="1.0" encoding="utf-8"?>
<!-- Generator: Adobe Illustrator 24.1.0, SVG Export Plug-In . SVG Version: 6.00 Build 0)  -->
<svg version="1.1" id="Layer_1" xmlns="http://www.w3.org/2000/svg" xmlns:xlink="http://www.w3.org/1999/xlink" x="0px" y="0px"
	 viewBox="0 0 403.4 98.5" style="enable-background:new 0 0 403.4 98.5;" xml:space="preserve">
<style type="text/css">
	.st0{fill:#495260;}
	.st1{fill:#79B522;}
	.st2{enable-background:new    ;}
</style>
<path class="st0" d="M390.4,21.4H389v-0.8h3.7v0.8h-1.4v4.4h-0.8L390.4,21.4L390.4,21.4z M393.4,20.6h1.3l1.2,3.7l0,0l1.2-3.7h1.3
	v5.2h-0.8v-4.2l0,0l-1.4,4.2h-0.6l-1.4-4.2l0,0v4.2h-0.8L393.4,20.6L393.4,20.6z M364.7,20.4c-2.2,0-3.9,1.5-4.2,3.6
	c-2.9-2.9-7-4.5-11.7-4.5c-11.7,0-20.8,9.2-20.8,20.9c0,0.3,0,0.5,0,0.8c4.4,1.7,7.5,6,7.5,11c0,1.4-0.2,2.7-0.7,3.9
	c3.7,3.2,8.5,5.1,13.9,5.1c4.7,0,9.1-2.3,11.7-4.8c0.2,2.3,1.9,3.9,4.2,3.9c2.7,0,4.3-1.6,4.3-4.3V24.7
	C369,22.1,367.3,20.4,364.7,20.4 M348.7,52c-6.4,0-11.6-5.2-11.6-11.6s5.2-11.6,11.6-11.6s11.6,5.2,11.6,11.6
	C360.3,46.9,355.1,52,348.7,52 M288.5,20.4c-2.2,0-3.9,1.5-4.2,3.6c-2.9-2.9-7-4.5-11.7-4.5c-11.7,0-20.8,9.2-20.8,20.9
	c0,11.8,9,20.8,20.8,20.8c4.7,0,9.1-2.3,11.7-4.8c0.2,2.3,1.9,3.9,4.2,3.9c2.7,0,4.3-1.6,4.3-4.3V24.7
	C292.8,22.1,291.1,20.4,288.5,20.4 M272.2,52c-6.4,0-11.6-5.2-11.6-11.6s5.2-11.6,11.6-11.6s11.6,5.2,11.6,11.6
	C283.8,46.9,278.6,52,272.2,52 M141.3,5c-2.7,0-4.3,1.7-4.3,4.3v14.8c-2.7-2.9-6.8-4.6-11.6-4.6c-11.1,0-20.8,9.8-20.8,20.9
	s9.7,20.8,20.8,20.8c4.9,0,9.5-2.5,12-5c0.5,2.7,2.1,4.2,4.7,4.2c2.1,0,3.6-1.6,3.6-3.9V9.2C145.7,6.7,143.9,5,141.3,5 M125.4,52
	c-6.4,0-11.6-5.2-11.6-11.6s5.2-11.6,11.6-11.6S137,34,137,40.4C136.9,46.9,131.8,52,125.4,52 M204.4,20.4c-2.8,0-4.2,1.3-4.6,4.2
	c-2.6-2.6-7.1-5.1-12-5.1c-11.1,0-20.8,9.7-20.8,20.9c0,11.1,9.7,20.9,20.8,20.9c5,0,9-1.6,11.5-4.4c-0.3,8.4-4.3,12.5-12.4,12.5
	c-2.7,0-4.3,1.7-4.3,4.3c0,2.8,1.7,4.3,4.6,4.3c15.4,0,20.8-11.2,20.8-20.8v-33C208.1,22.1,206.6,20.4,204.4,20.4 M187.7,52
	c-6.4,0-11.6-5.2-11.6-11.6s5.2-11.6,11.6-11.6c6.4,0,11.6,5.2,11.6,11.6C199.2,46.9,194.1,52,187.7,52 M380.9,20.2
	c-2.4,0-4.3,1.8-4.3,4.3l-0.1,31.8c0,2.6,1.8,4.3,4.3,4.3c2.7,0,4.3-1.6,4.3-4.3l0.1-31.8C385.2,21.9,383.5,20.2,380.9,20.2
	 M156.8,20c-2.4,0-4.3,1.8-4.3,4.3v31.8c0,2.6,1.8,4.3,4.3,4.3c2.7,0,4.3-1.6,4.3-4.3V24.3C161.2,21.7,159.4,20,156.8,20 M220,20.1
	c-2.4,0-4.3,1.8-4.3,4.3v31.7c0,2.6,1.8,4.3,4.3,4.3c2.7,0,4.3-1.6,4.3-4.3V24.4C224.3,21.8,222.6,20.1,220,20.1 M246.7,52
	c-2.8-0.2-4.6-1-4.6-4.3V29.4h2.2c2.4,0,4.3-1.8,4.3-4.3c0-2.7-1.7-4.3-4.3-4.3h-2.2V9.3c0-2.7-1.6-4.3-4.3-4.3
	c-2.5,0-4.3,1.8-4.3,4.3v11.6c-2.1,0.3-3.3,1.9-3.3,4.2c0,2.2,1.4,3.9,3.3,4.2v18.4c0,8,4.3,12.6,11.8,12.6c3.1,0,5-1.5,5-4
	S248.9,52.2,246.7,52 M305.3,5c-2.5,0-4.3,1.8-4.3,4.3v46.8c0,2.6,1.8,4.3,4.3,4.3c2.7,0,4.3-1.6,4.3-4.3V9.3
	C309.7,6.6,308,5,305.3,5 M330.5,47.7c-0.1-0.2-0.3-0.4-0.5-0.6c-0.4-0.5-0.8-0.9-1.4-1.3c-0.2-0.1-0.3-0.3-0.5-0.3
	c-0.9-0.6-1.9-1-3.1-1.2c-0.5-0.1-0.9-0.1-1.4-0.1c-1.4,0-2.7,0.3-3.9,1c-0.2,0.1-0.5,0.3-0.7,0.4c-2.2,1.4-3.6,3.9-3.6,6.7
	s1.4,5.3,3.6,6.7c0.2,0.1,0.4,0.3,0.7,0.4c1.2,0.6,2.4,1,3.9,1c2,0,3.7-0.7,5.2-1.8c0.4-0.3,0.7-0.7,1.1-1.1
	c0.1-0.2,0.3-0.4,0.5-0.6c0.3-0.4,0.5-0.9,0.7-1.4c0.4-1,0.6-2,0.6-3.2s-0.2-2.2-0.6-3.2C331,48.6,330.7,48.2,330.5,47.7"/>
<path class="st1" d="M279.9,38.6c0.1,0.5,0.2,1.2,0.2,1.8c0,0.3,0,0.7-0.1,1s-0.1,0.7-0.2,1c-0.1,0.6-0.4,1.2-0.7,1.8
	c-1.4,2.4-3.9,4.1-6.9,4.1c-4.3,0-7.9-3.5-7.9-8c0-0.5,0.1-1.1,0.1-1.6c0.5-2.6,2.3-4.7,4.7-5.7c1-0.4,2-0.6,3.1-0.6
	s2.1,0.2,3.1,0.6c1.8,0.7,3.2,2.1,4,3.9C279.6,37.5,279.8,38.1,279.9,38.6 M125.4,32.5c-4.3,0-7.9,3.5-7.9,8s3.5,8,7.9,8
	c4.3,0,7.9-3.5,7.9-8S129.7,32.5,125.4,32.5 M351.8,33.1c-0.2-0.1-0.5-0.2-0.7-0.3c-0.3-0.1-0.7-0.2-1.2-0.3s-0.8-0.1-1.2-0.1
	c-0.8,0-1.6,0.1-2.4,0.3c-0.3,0.1-0.5,0.1-0.7,0.3c-2.4,1-4.1,3.1-4.7,5.7c-0.1,0.5-0.1,1-0.1,1.6c0,2.2,0.9,4.1,2.3,5.6
	c0.3,0.3,0.7,0.7,1.2,1c0.6,0.4,1.4,0.7,2,1c0.7,0.2,1.6,0.3,2.4,0.3c0.4,0,0.8,0,1.2-0.1c0.4-0.1,0.7-0.1,1.2-0.3
	c0.7-0.2,1.4-0.5,2-1c0.4-0.3,0.8-0.6,1.2-1c1.4-1.4,2.3-3.4,2.3-5.6c0-0.5-0.1-1.1-0.1-1.6C355.9,36.3,354.2,34.2,351.8,33.1
	 M190.7,33.1c-1-0.4-2-0.6-3.1-0.6s-2.1,0.2-3.1,0.6c-2.4,1-4.1,3.1-4.7,5.7c-0.1,0.5-0.1,1-0.1,1.6c0,4.3,3.5,8,7.9,8
	c4.3,0,7.9-3.5,7.9-8c0-0.5-0.1-1.1-0.1-1.6C194.9,36.3,193.1,34.2,190.7,33.1"/>
<g class="st2">
	<path class="st0" d="M264.3,90.4h-1.4c-0.3,0-0.6,0-0.7-0.1c-0.2-0.1-0.3-0.3-0.4-0.6l-0.4-1.7c-0.5,0.4-0.9,0.8-1.4,1.2
		c-0.5,0.3-0.9,0.6-1.4,0.9c-0.5,0.2-1,0.4-1.6,0.5c-0.6,0.1-1.2,0.2-1.9,0.2c-0.7,0-1.4-0.1-2-0.3c-0.6-0.2-1.1-0.5-1.6-0.9
		c-0.5-0.4-0.8-0.9-1.1-1.5c-0.3-0.6-0.4-1.3-0.4-2.1c0-0.7,0.2-1.4,0.6-2.1c0.4-0.7,1-1.3,1.9-1.8c0.9-0.5,2-0.9,3.4-1.3
		s3.1-0.5,5.2-0.5v-1.4c0-1.4-0.3-2.5-0.9-3.2s-1.5-1.1-2.7-1.1c-0.8,0-1.4,0.1-2,0.3c-0.5,0.2-1,0.4-1.4,0.7s-0.7,0.5-1,0.7
		c-0.3,0.2-0.6,0.3-0.8,0.3c-0.2,0-0.4-0.1-0.6-0.2c-0.2-0.1-0.3-0.3-0.4-0.4l-0.6-1c1-1,2.1-1.7,3.2-2.2c1.2-0.5,2.4-0.7,3.8-0.7
		c1,0,1.9,0.2,2.7,0.5s1.4,0.8,2,1.4c0.5,0.6,0.9,1.3,1.2,2.2c0.3,0.8,0.4,1.8,0.4,2.8V90.4z M256,88.5c0.6,0,1.1-0.1,1.5-0.2
		c0.5-0.1,0.9-0.3,1.3-0.5s0.8-0.5,1.2-0.8s0.7-0.6,1.1-1v-3.7c-1.5,0-2.7,0.1-3.7,0.3c-1,0.2-1.9,0.4-2.5,0.7
		c-0.6,0.3-1.1,0.7-1.4,1.1c-0.3,0.4-0.4,0.9-0.4,1.4c0,0.5,0.1,0.9,0.2,1.2c0.2,0.3,0.4,0.6,0.6,0.9c0.3,0.2,0.6,0.4,0.9,0.5
		C255.2,88.4,255.6,88.5,256,88.5z"/>
	<path class="st0" d="M269.1,90.4V72.3h1.9c0.5,0,0.7,0.2,0.9,0.7l0.2,2c0.8-0.9,1.7-1.6,2.6-2.1c1-0.5,2.1-0.8,3.4-0.8
		c1,0,1.9,0.2,2.6,0.5c0.8,0.3,1.4,0.8,1.9,1.4c0.5,0.6,0.9,1.3,1.2,2.2c0.3,0.8,0.4,1.8,0.4,2.8v11.5h-3.2V78.9
		c0-1.4-0.3-2.4-0.9-3.2c-0.6-0.8-1.6-1.1-2.9-1.1c-0.9,0-1.8,0.2-2.6,0.7s-1.6,1.1-2.3,1.8v13.3H269.1z"/>
	<path class="st0" d="M302.2,90.4h-1.4c-0.3,0-0.6,0-0.7-0.1c-0.2-0.1-0.3-0.3-0.4-0.6l-0.4-1.7c-0.5,0.4-0.9,0.8-1.4,1.2
		c-0.5,0.3-0.9,0.6-1.4,0.9c-0.5,0.2-1,0.4-1.6,0.5c-0.6,0.1-1.2,0.2-1.9,0.2c-0.7,0-1.4-0.1-2-0.3c-0.6-0.2-1.1-0.5-1.6-0.9
		c-0.5-0.4-0.8-0.9-1.1-1.5c-0.3-0.6-0.4-1.3-0.4-2.1c0-0.7,0.2-1.4,0.6-2.1c0.4-0.7,1-1.3,1.9-1.8c0.9-0.5,2-0.9,3.4-1.3
		s3.1-0.5,5.2-0.5v-1.4c0-1.4-0.3-2.5-0.9-3.2s-1.5-1.1-2.7-1.1c-0.8,0-1.4,0.1-2,0.3c-0.5,0.2-1,0.4-1.4,0.7s-0.7,0.5-1,0.7
		c-0.3,0.2-0.6,0.3-0.8,0.3c-0.2,0-0.4-0.1-0.6-0.2c-0.2-0.1-0.3-0.3-0.4-0.4l-0.6-1c1-1,2.1-1.7,3.2-2.2c1.2-0.5,2.4-0.7,3.8-0.7
		c1,0,1.9,0.2,2.7,0.5s1.4,0.8,2,1.4c0.5,0.6,0.9,1.3,1.2,2.2c0.3,0.8,0.4,1.8,0.4,2.8V90.4z M294,88.5c0.6,0,1.1-0.1,1.5-0.2
		c0.5-0.1,0.9-0.3,1.3-0.5s0.8-0.5,1.2-0.8s0.7-0.6,1.1-1v-3.7c-1.5,0-2.7,0.1-3.7,0.3c-1,0.2-1.9,0.4-2.5,0.7
		c-0.6,0.3-1.1,0.7-1.4,1.1c-0.3,0.4-0.4,0.9-0.4,1.4c0,0.5,0.1,0.9,0.2,1.2c0.2,0.3,0.4,0.6,0.6,0.9c0.3,0.2,0.6,0.4,0.9,0.5
		C293.2,88.4,293.5,88.5,294,88.5z"/>
	<path class="st0" d="M310.6,64.1v26.3h-3.2V64.1H310.6z"/>
	<path class="st0" d="M321.5,95.7c-0.1,0.2-0.2,0.4-0.4,0.6c-0.2,0.1-0.4,0.2-0.7,0.2H318l3.3-7.2l-7.5-17h2.7
		c0.3,0,0.5,0.1,0.6,0.2c0.2,0.1,0.3,0.3,0.3,0.5l4.8,11.4c0.1,0.3,0.2,0.5,0.3,0.8c0.1,0.3,0.1,0.5,0.2,0.8
		c0.1-0.3,0.2-0.5,0.2-0.8c0.1-0.3,0.2-0.5,0.3-0.8l4.7-11.4c0.1-0.2,0.2-0.3,0.4-0.5c0.2-0.1,0.4-0.2,0.6-0.2h2.5L321.5,95.7z"/>
	<path class="st0" d="M339.9,90.7c-1.4,0-2.5-0.4-3.3-1.2c-0.8-0.8-1.2-1.9-1.2-3.4V75h-2.2c-0.2,0-0.4-0.1-0.5-0.2
		s-0.2-0.3-0.2-0.5V73l3-0.4l0.7-5.6c0-0.2,0.1-0.3,0.2-0.4c0.1-0.1,0.3-0.2,0.5-0.2h1.6v6.2h5.2V75h-5.2v10.9
		c0,0.8,0.2,1.3,0.6,1.7c0.4,0.4,0.8,0.6,1.4,0.6c0.3,0,0.6,0,0.9-0.1c0.2-0.1,0.5-0.2,0.6-0.3c0.2-0.1,0.3-0.2,0.5-0.3
		c0.1-0.1,0.2-0.1,0.3-0.1c0.2,0,0.3,0.1,0.4,0.3l0.9,1.5c-0.5,0.5-1.2,0.9-2,1.2C341.6,90.5,340.8,90.7,339.9,90.7z"/>
	<path class="st0" d="M352,66.6c0,0.3-0.1,0.6-0.2,0.9c-0.1,0.3-0.3,0.5-0.5,0.7c-0.2,0.2-0.4,0.4-0.7,0.5c-0.3,0.1-0.6,0.2-0.9,0.2
		s-0.6-0.1-0.9-0.2c-0.3-0.1-0.5-0.3-0.7-0.5c-0.2-0.2-0.4-0.4-0.5-0.7s-0.2-0.6-0.2-0.9s0.1-0.6,0.2-0.9c0.1-0.3,0.3-0.5,0.5-0.7
		c0.2-0.2,0.4-0.4,0.7-0.5c0.3-0.1,0.6-0.2,0.9-0.2s0.6,0.1,0.9,0.2c0.3,0.1,0.5,0.3,0.7,0.5c0.2,0.2,0.4,0.5,0.5,0.7
		C352,66,352,66.3,352,66.6z M351.3,72.3v18.1h-3.2V72.3H351.3z"/>
	<path class="st0" d="M369.3,75.5c-0.1,0.1-0.2,0.2-0.3,0.3s-0.2,0.1-0.4,0.1s-0.4-0.1-0.6-0.2c-0.2-0.1-0.5-0.3-0.8-0.5
		c-0.3-0.2-0.7-0.3-1.2-0.5c-0.5-0.1-1-0.2-1.7-0.2c-0.9,0-1.7,0.2-2.3,0.5c-0.7,0.3-1.2,0.8-1.7,1.4c-0.5,0.6-0.8,1.3-1,2.2
		c-0.2,0.8-0.3,1.8-0.3,2.8c0,1.1,0.1,2.1,0.4,2.9c0.2,0.9,0.6,1.6,1.1,2.1c0.5,0.6,1,1,1.7,1.3c0.6,0.3,1.4,0.5,2.2,0.5
		c0.8,0,1.4-0.1,1.9-0.3c0.5-0.2,0.9-0.4,1.2-0.6c0.3-0.2,0.6-0.4,0.8-0.6s0.4-0.3,0.6-0.3c0.3,0,0.5,0.1,0.6,0.3l0.9,1.2
		c-0.8,1-1.8,1.7-2.9,2.1c-1.2,0.4-2.4,0.7-3.7,0.7c-1.1,0-2.2-0.2-3.2-0.6c-1-0.4-1.8-1-2.5-1.8c-0.7-0.8-1.3-1.8-1.7-2.9
		s-0.6-2.5-0.6-3.9c0-1.3,0.2-2.6,0.6-3.7s0.9-2.1,1.6-3c0.7-0.8,1.6-1.5,2.7-1.9c1.1-0.5,2.3-0.7,3.6-0.7c1.3,0,2.4,0.2,3.4,0.6
		c1,0.4,1.8,1,2.6,1.7L369.3,75.5z"/>
	<path class="st0" d="M384,75.3c-0.1,0.3-0.4,0.4-0.7,0.4c-0.2,0-0.4-0.1-0.6-0.2s-0.5-0.3-0.8-0.4c-0.3-0.2-0.7-0.3-1.2-0.4
		c-0.5-0.1-1-0.2-1.6-0.2c-0.5,0-1,0.1-1.4,0.2c-0.4,0.1-0.8,0.3-1.1,0.6c-0.3,0.2-0.5,0.5-0.7,0.8s-0.2,0.7-0.2,1
		c0,0.5,0.1,0.9,0.4,1.2c0.3,0.3,0.6,0.6,1.1,0.8c0.4,0.2,0.9,0.4,1.5,0.6c0.6,0.2,1.1,0.4,1.7,0.6c0.6,0.2,1.2,0.4,1.7,0.7
		s1.1,0.5,1.5,0.9c0.4,0.4,0.8,0.8,1.1,1.3c0.3,0.5,0.4,1.1,0.4,1.9c0,0.8-0.1,1.6-0.4,2.3s-0.7,1.3-1.3,1.8s-1.3,0.9-2.1,1.2
		c-0.8,0.3-1.8,0.4-2.9,0.4c-1.3,0-2.4-0.2-3.4-0.6c-1-0.4-1.9-0.9-2.6-1.6l0.8-1.2c0.1-0.2,0.2-0.3,0.3-0.4
		c0.1-0.1,0.3-0.1,0.5-0.1s0.4,0.1,0.7,0.2c0.2,0.2,0.5,0.4,0.9,0.6c0.3,0.2,0.8,0.4,1.2,0.6c0.5,0.2,1.1,0.2,1.8,0.2
		c0.6,0,1.2-0.1,1.6-0.2c0.5-0.2,0.9-0.4,1.2-0.7c0.3-0.3,0.5-0.6,0.7-0.9c0.1-0.4,0.2-0.7,0.2-1.1c0-0.5-0.1-0.9-0.4-1.2
		c-0.3-0.3-0.6-0.6-1.1-0.8s-0.9-0.4-1.5-0.6c-0.6-0.2-1.1-0.4-1.7-0.5c-0.6-0.2-1.2-0.4-1.7-0.7c-0.6-0.2-1.1-0.5-1.5-0.9
		c-0.4-0.4-0.8-0.8-1.1-1.4c-0.3-0.5-0.4-1.2-0.4-2c0-0.7,0.1-1.4,0.4-2s0.7-1.2,1.2-1.7c0.5-0.5,1.2-0.9,2-1.2
		c0.8-0.3,1.7-0.4,2.7-0.4c1.2,0,2.3,0.2,3.2,0.6c0.9,0.4,1.8,0.9,2.5,1.5L384,75.3z"/>
</g>
<g>
	<path class="st1" d="M49,11.7c21.1,0,38.3,17.2,38.3,38.3S70.1,88.3,49,88.3S10.7,71.1,10.7,50S27.8,11.7,49,11.7 M49,4
		C23.6,4,3,24.6,3,50s20.6,46,46,46s46-20.6,46-46S74.4,4,49,4L49,4z"/>
	<g>
		<g>
			<path class="st1" d="M42.3,45.2H25.9c-0.5,0-0.9-0.2-1.3-0.5c-0.4-0.4-0.6-0.8-0.6-1.3c0-5.1,1.8-9.4,5.4-13
				C33,26.8,37.2,25,42.3,25c0.5,0,1,0.2,1.3,0.5c0.4,0.4,0.5,0.8,0.5,1.3v16.4c0.1,0.5-0.1,1-0.5,1.4S42.8,45.2,42.3,45.2z
				 M67.2,68.2C62.6,72.7,57.1,75,50.7,75s-11.9-2.2-16.5-6.5c-4.5-4.4-6.8-9.6-6.8-15.8c0-0.6,0.2-1.1,0.6-1.5
				c0.4-0.4,0.9-0.6,1.5-0.6h19.9V30.6c0-0.6,0.2-1.1,0.6-1.5c0.4-0.4,0.9-0.6,1.5-0.6c6.1,0,11.3,2.3,15.7,6.9
				c4.4,4.6,6.6,10,6.6,16.4C74,58.1,71.7,63.6,67.2,68.2z M28,41.4h12.4V29c-3.3,0.4-6,1.7-8.3,4.1C29.7,35.4,28.4,38.2,28,41.4z
				 M31.9,54.9c0.5,4.4,2.6,8.2,6.2,11.2c3.6,3,7.8,4.5,12.6,4.5c5.2,0,9.7-1.9,13.4-5.6c3.7-3.7,5.6-8.2,5.6-13.4
				c0-4.7-1.5-8.9-4.6-12.5c-3.1-3.6-6.8-5.7-11.1-6.2v19.7c0,0.7-0.2,1.2-0.6,1.6c-0.4,0.4-1,0.6-1.6,0.6H31.9z"/>
			<path class="st1" d="M50.7,76c-6.7,0-12.5-2.3-17.1-6.8c-4.7-4.5-7.1-10.1-7.1-16.5c0-0.9,0.3-1.6,0.9-2.2
				c0.6-0.6,1.4-0.9,2.2-0.9h18.9V30.6c0-0.9,0.3-1.6,0.9-2.2c0.6-0.6,1.4-0.9,2.2-0.9c6.3,0,11.8,2.4,16.4,7.2
				c4.6,4.8,6.9,10.5,6.9,17.1c0,6.7-2.4,12.5-7.1,17.2S57.4,76,50.7,76z M29.6,51.5c-0.3,0-0.6,0.1-0.8,0.3s-0.3,0.5-0.3,0.8
				c0,5.9,2.2,11,6.5,15.1c4.3,4.2,9.6,6.3,15.8,6.3c6.1,0,11.5-2.2,15.8-6.5S73,57.8,73,51.7c0-6-2.1-11.3-6.4-15.7
				c-4.2-4.4-9.3-6.6-15-6.6c-0.3,0-0.6,0.1-0.8,0.3s-0.3,0.5-0.3,0.8v20.9H29.6z M50.7,71.6c-5,0-9.5-1.6-13.2-4.8
				c-3.8-3.2-6-7.2-6.5-11.8l-0.1-1.1h20.9c0.4,0,0.7-0.1,0.9-0.3s0.3-0.5,0.3-0.9V31.8l1.1,0.1c4.6,0.6,8.6,2.8,11.8,6.6
				c3.2,3.8,4.8,8.2,4.8,13.1c0,5.5-2,10.2-5.9,14.1C60.9,69.6,56.1,71.6,50.7,71.6z M33.1,55.9c0.7,3.7,2.6,6.8,5.6,9.4
				c3.4,2.9,7.4,4.3,12,4.3c4.9,0,9.2-1.8,12.7-5.3c3.5-3.5,5.3-7.8,5.3-12.7c0-4.4-1.5-8.4-4.4-11.9c-2.6-3.1-5.8-5-9.4-5.7v18.6
				c0,0.9-0.3,1.7-0.9,2.3c-0.6,0.6-1.4,0.9-2.3,0.9H33.1z M42.3,46.2H25.9c-0.7,0-1.4-0.3-1.9-0.8c-0.6-0.5-0.9-1.3-0.9-2.1
				c0-5.3,1.9-9.9,5.7-13.7S37,24,42.3,24c0.8,0,1.5,0.3,2,0.8c0.5,0.5,0.8,1.2,0.8,2v16.4c0.1,0.8-0.2,1.5-0.8,2.1
				C43.8,45.9,43,46.2,42.3,46.2z M42.3,26c-4.7,0-8.8,1.7-12.2,5.1S25,38.6,25,43.4c0,0.2,0.1,0.4,0.3,0.6c0.3,0.2,0.5,0.3,0.6,0.3
				h16.4c0.3,0,0.5-0.1,0.7-0.3c0.2-0.2,0.2-0.4,0.2-0.5l0-0.1V26.9c0-0.3-0.1-0.4-0.2-0.6C42.7,26.1,42.5,26,42.3,26z M41.4,42.4
				H26.9l0.1-1.1c0.4-3.5,1.9-6.5,4.3-8.9c2.5-2.5,5.5-3.9,8.9-4.3l1.1-0.1V42.4z M29.2,40.4h10.2V30.2c-2.5,0.5-4.8,1.7-6.6,3.6
				C30.9,35.6,29.7,37.9,29.2,40.4z"/>
		</g>
	</g>
</g>
</svg>
